<?xml version="1.0" encoding="utf-8"?>
<!-- Generator: Adobe Illustrator 25.1.0, SVG Export Plug-In . SVG Version: 6.00 Build 0)  -->
<svg version="1.1" id="Layer_1" xmlns="http://www.w3.org/2000/svg" xmlns:xlink="http://www.w3.org/1999/xlink" x="0px" y="0px"
	 viewBox="0 0 800 800" style="enable-background:new 0 0 800 800;" xml:space="preserve">
<style type="text/css">
	.st0{opacity:0.3;fill:#FCC7A1;}
	.st1{fill:#2D7978;}
	.st2{fill:#F6916C;}
	.st3{fill:#B0B668;}
</style>
<circle class="st0" cx="400" cy="400" r="391.71"/>
<path class="st1" d="M330.37,324.43c-4.43-70.39-117.38-83.94-117.69-131.2c-0.35-54.56,149.71-119.77,184.61-76.09
	c26.4,33.04-30.22,107.02,4.62,160.06c19.87,30.25,62.92,43.7,78.46,28.86c8.91-8.5,4.62-22.33,6.92-47.23
	c3.66-39.48,23.22-99.41,57.69-110.2c34-10.65,80.68,27.07,92.3,70.85c15.39,57.96-30.34,127.75-71.54,160.06
	c-23.79,18.66-50.2,28.06-48.46,39.36c1.74,11.32,30.19,14.48,41.54,15.74c65.35,7.26,84.84-23.04,117.69-10.5
	c34.85,13.31,63.03,66.57,55.38,115.45c-4.28,27.37-21.68,65.34-46.15,68.22c-26.42,3.11-38.26-37.34-101.53-97.08
	c-35.64-33.64-59.01-55.71-76.15-47.23c-25.85,12.8-30.52,91.65-4.62,112.83c19.23,15.72,44.18-9.43,64.61,7.87
	c17.51,14.83,20.55,51.39,11.54,76.09c-17.51,48.01-88.14,72.16-140.76,44.61c-38.39-20.1-69.12-68.72-64.61-112.83
	c5.79-56.65,67.21-81.42,57.69-112.83c-4.56-15.05-23.49-25.32-39.23-23.62c-32.39,3.51-33.55,55.84-83.07,104.96
	c-17.14,17-46.87,46.48-85.38,44.61c-43.72-2.13-77.39-43.64-92.3-78.72c-26.22-61.66-12.58-145.97,20.77-162.68
	c7.67-3.84,11.69-1.76,83.07,15.74c44.23,10.85,56.8,13.51,69.23,5.25C321.54,373.78,331.81,347.4,330.37,324.43z"/>
<path class="st2" d="M293.95,308.5c-4.43-70.39-117.38-83.94-117.69-131.2c-0.35-54.56,149.71-119.77,184.61-76.09
	c26.4,33.04-30.22,107.02,4.62,160.06c19.87,30.25,62.92,43.7,78.46,28.86c8.91-8.5,4.62-22.33,6.92-47.23
	c3.66-39.48,23.22-99.41,57.69-110.2c34-10.65,80.68,27.07,92.3,70.85c15.39,57.96-30.34,127.75-71.54,160.06
	c-23.79,18.66-50.2,28.06-48.46,39.36c1.74,11.32,30.19,14.48,41.54,15.74c65.35,7.26,84.84-23.04,117.69-10.5
	c34.85,13.31,63.03,66.57,55.38,115.45c-4.28,27.37-21.68,65.34-46.15,68.22c-26.42,3.11-38.26-37.34-101.53-97.08
	c-35.64-33.64-59.01-55.71-76.15-47.23c-25.85,12.8-30.52,91.65-4.62,112.83c19.23,15.72,44.18-9.43,64.61,7.87
	c17.51,14.83,20.55,51.39,11.54,76.09c-17.51,48.01-88.14,72.16-140.76,44.61c-38.39-20.1-69.12-68.72-64.61-112.83
	c5.79-56.65,67.21-81.42,57.69-112.83c-4.56-15.05-23.49-25.32-39.23-23.62c-32.39,3.51-33.55,55.84-83.07,104.96
	c-17.14,17-46.87,46.48-85.38,44.61c-43.72-2.13-77.39-43.64-92.3-78.72c-26.22-61.66-12.58-145.97,20.77-162.68
	c7.67-3.84,11.69-1.76,83.07,15.74c44.23,10.85,56.8,13.51,69.23,5.25C285.13,357.85,295.4,331.47,293.95,308.5z"/>
<path class="st3" d="M249.37,308.5c-4.43-70.39-117.38-83.94-117.69-131.2c-0.35-54.56,149.71-119.77,184.61-76.09
	c26.4,33.04-30.22,107.02,4.62,160.06c19.87,30.25,62.92,43.7,78.46,28.86c8.91-8.5,4.62-22.33,6.92-47.23
	c3.66-39.48,23.22-99.41,57.69-110.2c34-10.65,80.68,27.07,92.3,70.85c15.39,57.96-30.34,127.75-71.54,160.06
	c-23.79,18.66-50.2,28.06-48.46,39.36c1.74,11.32,30.19,14.48,41.54,15.74c65.35,7.26,84.84-23.04,117.69-10.5
	c34.85,13.31,63.03,66.57,55.38,115.45c-4.28,27.37-21.68,65.34-46.15,68.22c-26.42,3.11-38.26-37.34-101.53-97.08
	c-35.64-33.64-59.01-55.71-76.15-47.23c-25.85,12.8-30.52,91.65-4.62,112.83c19.23,15.72,44.18-9.43,64.61,7.87
	c17.51,14.83,20.55,51.39,11.54,76.09c-17.51,48.01-88.14,72.16-140.76,44.61c-38.39-20.1-69.12-68.72-64.61-112.83
	c5.79-56.65,67.21-81.42,57.69-112.83c-4.56-15.05-23.49-25.32-39.23-23.62c-32.39,3.51-33.55,55.84-83.07,104.96
	c-17.14,17-46.87,46.48-85.38,44.61c-43.72-2.13-77.39-43.64-92.3-78.72C24.7,448.88,38.33,364.57,71.68,347.86
	c7.67-3.84,11.69-1.76,83.07,15.74c44.23,10.85,56.8,13.51,69.23,5.25C240.54,357.85,250.81,331.47,249.37,308.5z"/>
</svg>
